<svg xmlns="http://www.w3.org/2000/svg" version="1.1" xmlns:xlink="http://www.w3.org/1999/xlink" viewBox="0 0 200 200"><rect width="200" height="200" fill="url('#gradient')"></rect><defs><linearGradient id="gradient" gradientTransform="rotate(45 0.5 0.5)"><stop offset="0%" stop-color="#ffffff"></stop><stop offset="100%" stop-color="#ffffff"></stop></linearGradient></defs><g><g fill="#000000" transform="matrix(2.7696468820435762,0,0,2.7696468820435762,9.056725698790103,115.14871722965827)" stroke="#000000" stroke-width="0.2"><path d="M6.46-2.97L6.46-2.97Q6.46-3.39 6.02-3.64Q5.58-3.90 4.35-4.17Q3.12-4.44 2.31-4.89Q1.51-5.33 1.09-5.97Q0.67-6.60 0.67-7.42L0.67-7.42Q0.67-8.88 1.88-9.82Q3.08-10.76 5.02-10.76L5.02-10.76Q7.11-10.76 8.38-9.81Q9.65-8.87 9.65-7.32L9.65-7.32L6.35-7.32Q6.35-8.59 5.01-8.59L5.01-8.59Q4.49-8.59 4.14-8.31Q3.79-8.02 3.79-7.59L3.79-7.59Q3.79-7.15 4.22-6.88Q4.65-6.60 5.59-6.43Q6.53-6.25 7.25-6.01L7.25-6.01Q9.63-5.19 9.63-3.07L9.63-3.07Q9.63-1.62 8.34-0.71Q7.06 0.20 5.02 0.20L5.02 0.20Q3.66 0.20 2.60-0.29Q1.53-0.78 0.94-1.62Q0.34-2.46 0.34-3.39L0.34-3.39L3.42-3.39Q3.44-2.66 3.91-2.32Q4.38-1.98 5.11-1.98L5.11-1.98Q5.78-1.98 6.12-2.26Q6.46-2.53 6.46-2.97ZM20.41 0L17.12 0Q16.94-0.32 16.81-0.95L16.81-0.95Q15.90 0.20 14.27 0.20L14.27 0.20Q12.77 0.20 11.73-0.71Q10.68-1.61 10.68-2.98L10.68-2.98Q10.68-4.70 11.95-5.58Q13.22-6.46 15.64-6.46L15.64-6.46L16.66-6.46L16.66-7.01Q16.66-8.47 15.40-8.47L15.40-8.47Q14.23-8.47 14.23-7.31L14.23-7.31L10.94-7.31Q10.94-8.85 12.24-9.80Q13.54-10.76 15.57-10.76Q17.59-10.76 18.76-9.78Q19.93-8.79 19.96-7.07L19.96-7.07L19.96-2.39Q19.98-0.94 20.41-0.17L20.41-0.17L20.41 0ZM15.06-2.15L15.06-2.15Q15.67-2.15 16.08-2.41Q16.48-2.68 16.66-3.01L16.66-3.01L16.66-4.70L15.70-4.70Q13.98-4.70 13.98-3.15L13.98-3.15Q13.98-2.71 14.29-2.43Q14.59-2.15 15.06-2.15ZM21.81-10.57L24.89-10.57L25-9.33Q26.12-10.76 28.02-10.76L28.02-10.76Q30.02-10.76 30.72-9.17L30.72-9.17Q31.80-10.76 33.83-10.76L33.83-10.76Q37.04-10.76 37.13-6.88L37.13-6.88L37.13 0L33.83 0L33.83-6.67Q33.83-7.48 33.55-7.85Q33.28-8.22 32.56-8.22L32.56-8.22Q31.58-8.22 31.10-7.35L31.10-7.35L31.11-7.22L31.11 0L27.81 0L27.81-6.65Q27.81-7.48 27.55-7.85Q27.29-8.22 26.54-8.22L26.54-8.22Q25.60-8.22 25.10-7.35L25.10-7.35L25.10 0L21.81 0L21.81-10.57ZM48.82-5.36L48.82-5.21Q48.82-2.74 47.71-1.27Q46.60 0.20 44.72 0.20L44.72 0.20Q43.26 0.20 42.32-0.87L42.32-0.87L42.32 4.06L39.03 4.06L39.03-10.57L42.11-10.57L42.21-9.59Q43.15-10.76 44.70-10.76L44.70-10.76Q46.65-10.76 47.73-9.32Q48.82-7.88 48.82-5.36L48.82-5.36ZM45.53-5.06L45.53-5.41Q45.53-8.22 43.89-8.22L43.89-8.22Q42.71-8.22 42.32-7.38L42.32-7.38L42.32-3.22Q42.75-2.34 43.91-2.34L43.91-2.34Q45.48-2.34 45.53-5.06L45.53-5.06ZM53.74-15L53.74 0L50.44 0L50.44-15L53.74-15ZM60.88 0.20L60.88 0.20Q58.45 0.20 56.94-1.25Q55.44-2.71 55.44-5.03L55.44-5.03L55.44-5.30Q55.44-6.92 56.04-8.16Q56.64-9.40 57.79-10.08Q58.95-10.76 60.53-10.76L60.53-10.76Q62.75-10.76 64.04-9.38Q65.33-8.00 65.33-5.53L65.33-5.53L65.33-4.25L58.79-4.25Q58.96-3.36 59.56-2.85Q60.16-2.34 61.10-2.34L61.10-2.34Q62.67-2.34 63.54-3.44L63.54-3.44L65.05-1.66Q64.43-0.81 63.31-0.31Q62.18 0.20 60.88 0.20ZM60.51-8.22L60.51-8.22Q59.06-8.22 58.79-6.31L58.79-6.31L62.11-6.31L62.11-6.56Q62.13-7.35 61.71-7.79Q61.29-8.22 60.51-8.22Z"></path></g></g></svg>