<svg xmlns="http://www.w3.org/2000/svg" viewBox="0 14.449999809265137 443.75 38.5" data-asc="1.05" width="443.75" height="38.5"><defs/><g fill="#ffffff"><g transform="translate(0, 0)"><path d="M17.50 52.85Q12.65 52.85 8.65 50.58Q4.65 48.30 2.33 44.23Q0 40.15 0 35.05Q0 29.95 2.33 25.88Q4.65 21.80 8.65 19.52Q12.65 17.25 17.50 17.25Q22.40 17.25 26.40 19.52Q30.40 21.80 32.70 25.85Q35 29.90 35 35.05Q35 40.20 32.70 44.25Q30.40 48.30 26.40 50.58Q22.40 52.85 17.50 52.85M17.50 48.90Q21.15 48.90 24.08 47.20Q27.00 45.50 28.68 42.35Q30.35 39.20 30.35 35.05Q30.35 30.85 28.68 27.72Q27.00 24.60 24.10 22.90Q21.20 21.20 17.50 21.20Q13.80 21.20 10.90 22.90Q8 24.60 6.32 27.72Q4.65 30.85 4.65 35.05Q4.65 39.20 6.32 42.35Q8 45.50 10.93 47.20Q13.85 48.90 17.50 48.90ZM45.55 29.55Q46.75 27.20 48.98 25.90Q51.20 24.60 54.40 24.60L54.40 29.30L53.20 29.30Q45.55 29.30 45.55 37.60L45.55 52.50L41.00 52.50L41.00 25.10L45.55 25.10L45.55 29.55ZM84.65 37.75Q84.65 39.05 84.50 40.50L62.60 40.50Q62.85 44.55 65.38 46.83Q67.90 49.10 71.50 49.10Q74.45 49.10 76.43 47.73Q78.40 46.35 79.20 44.05L84.10 44.05Q83.00 48 79.70 50.48Q76.40 52.95 71.50 52.95Q67.60 52.95 64.53 51.20Q61.45 49.45 59.70 46.23Q57.95 43 57.95 38.75Q57.95 34.50 59.65 31.30Q61.35 28.10 64.43 26.38Q67.50 24.65 71.50 24.65Q75.40 24.65 78.40 26.35Q81.40 28.05 83.03 31.02Q84.65 34 84.65 37.75M79.95 36.80Q79.95 34.20 78.80 32.33Q77.65 30.45 75.68 29.47Q73.70 28.50 71.30 28.50Q67.85 28.50 65.43 30.70Q63.00 32.90 62.65 36.80L79.95 36.80ZM93.00 20.65Q91.70 20.65 90.80 19.75Q89.90 18.85 89.90 17.55Q89.90 16.25 90.80 15.35Q91.70 14.45 93.00 14.45Q94.25 14.45 95.13 15.35Q96.00 16.25 96.00 17.55Q96.00 18.85 95.13 19.75Q94.25 20.65 93.00 20.65M95.20 25.10L95.20 52.50L90.65 52.50L90.65 25.10L95.20 25.10ZM116.30 24.60Q121.30 24.60 124.40 27.63Q127.50 30.65 127.50 36.35L127.50 52.50L123.00 52.50L123.00 37Q123.00 32.90 120.95 30.72Q118.90 28.55 115.35 28.55Q111.75 28.55 109.63 30.80Q107.50 33.05 107.50 37.35L107.50 52.50L102.95 52.50L102.95 25.10L107.50 25.10L107.50 29Q108.85 26.90 111.18 25.75Q113.50 24.60 116.30 24.60ZM140.50 28.85L140.50 45Q140.50 47 141.35 47.83Q142.20 48.65 144.30 48.65L147.65 48.65L147.65 52.50L143.55 52.50Q139.75 52.50 137.85 50.75Q135.95 49 135.95 45L135.95 28.85L132.40 28.85L132.40 25.10L135.95 25.10L135.95 18.20L140.50 18.20L140.50 25.10L147.65 25.10L147.65 28.85L140.50 28.85ZM177.35 17.65Q183.05 17.65 187.23 19.77Q191.40 21.90 193.63 25.85Q195.85 29.80 195.85 35.15Q195.85 40.50 193.63 44.42Q191.40 48.35 187.23 50.42Q183.05 52.50 177.35 52.50L166.50 52.50L166.50 17.65L177.35 17.65M177.35 48.75Q184.10 48.75 187.65 45.17Q191.20 41.60 191.20 35.15Q191.20 28.65 187.63 25Q184.05 21.35 177.35 21.35L171.05 21.35L171.05 48.75L177.35 48.75ZM204.20 20.65Q202.90 20.65 202 19.75Q201.10 18.85 201.10 17.55Q201.10 16.25 202 15.35Q202.90 14.45 204.20 14.45Q205.45 14.45 206.32 15.35Q207.20 16.25 207.20 17.55Q207.20 18.85 206.32 19.75Q205.45 20.65 204.20 20.65M206.40 25.10L206.40 52.50L201.85 52.50L201.85 25.10L206.40 25.10ZM223.85 52.95Q220.70 52.95 218.20 51.88Q215.70 50.80 214.25 48.88Q212.80 46.95 212.65 44.45L217.35 44.45Q217.55 46.50 219.28 47.80Q221 49.10 223.80 49.10Q226.40 49.10 227.90 47.95Q229.40 46.80 229.40 45.05Q229.40 43.25 227.80 42.38Q226.20 41.50 222.85 40.65Q219.80 39.85 217.88 39.02Q215.95 38.20 214.58 36.58Q213.20 34.95 213.20 32.30Q213.20 30.20 214.45 28.45Q215.70 26.70 218 25.67Q220.30 24.65 223.25 24.65Q227.80 24.65 230.60 26.95Q233.40 29.25 233.60 33.25L229.05 33.25Q228.90 31.10 227.33 29.80Q225.75 28.50 223.10 28.50Q220.65 28.50 219.20 29.55Q217.75 30.60 217.75 32.30Q217.75 33.65 218.63 34.52Q219.50 35.40 220.83 35.92Q222.15 36.45 224.50 37.10Q227.45 37.90 229.30 38.67Q231.15 39.45 232.48 41Q233.80 42.55 233.85 45.05Q233.85 47.30 232.60 49.10Q231.35 50.90 229.08 51.92Q226.80 52.95 223.85 52.95ZM245.80 28.85L245.80 45Q245.80 47 246.65 47.83Q247.50 48.65 249.60 48.65L252.95 48.65L252.95 52.50L248.85 52.50Q245.05 52.50 243.15 50.75Q241.25 49 241.25 45L241.25 28.85L237.70 28.85L237.70 25.10L241.25 25.10L241.25 18.20L245.80 18.20L245.80 25.10L252.95 25.10L252.95 28.85L245.80 28.85ZM263 29.55Q264.20 27.20 266.43 25.90Q268.65 24.60 271.85 24.60L271.85 29.30L270.65 29.30Q263 29.30 263 37.60L263 52.50L258.45 52.50L258.45 25.10L263 25.10L263 29.55ZM279.45 20.65Q278.15 20.65 277.25 19.75Q276.35 18.85 276.35 17.55Q276.35 16.25 277.25 15.35Q278.15 14.45 279.45 14.45Q280.70 14.45 281.57 15.35Q282.45 16.25 282.45 17.55Q282.45 18.85 281.57 19.75Q280.70 20.65 279.45 20.65M281.65 25.10L281.65 52.50L277.10 52.50L277.10 25.10L281.65 25.10ZM293.95 30.20Q295.35 27.75 298.05 26.20Q300.75 24.65 304.20 24.65Q307.90 24.65 310.85 26.40Q313.80 28.15 315.50 31.32Q317.20 34.50 317.20 38.70Q317.20 42.85 315.50 46.10Q313.80 49.35 310.82 51.15Q307.85 52.95 304.20 52.95Q300.65 52.95 297.98 51.40Q295.30 49.85 293.95 47.45L293.95 52.50L289.40 52.50L289.40 15.50L293.95 15.50L293.95 30.20M312.55 38.70Q312.55 35.60 311.30 33.30Q310.05 31 307.93 29.80Q305.80 28.60 303.25 28.60Q300.75 28.60 298.63 29.82Q296.50 31.05 295.23 33.38Q293.95 35.70 293.95 38.75Q293.95 41.85 295.23 44.17Q296.50 46.50 298.63 47.73Q300.75 48.95 303.25 48.95Q305.80 48.95 307.93 47.73Q310.05 46.50 311.30 44.17Q312.55 41.85 312.55 38.70ZM347.50 25.10L347.50 52.50L342.95 52.50L342.95 48.45Q341.65 50.55 339.33 51.73Q337 52.90 334.20 52.90Q331 52.90 328.45 51.58Q325.90 50.25 324.43 47.60Q322.95 44.95 322.95 41.15L322.95 25.10L327.45 25.10L327.45 40.55Q327.45 44.60 329.50 46.77Q331.55 48.95 335.10 48.95Q338.75 48.95 340.85 46.70Q342.95 44.45 342.95 40.15L342.95 25.10L347.50 25.10ZM360.75 28.85L360.75 45Q360.75 47 361.60 47.83Q362.45 48.65 364.55 48.65L367.90 48.65L367.90 52.50L363.80 52.50Q360 52.50 358.10 50.75Q356.20 49 356.20 45L356.20 28.85L352.65 28.85L352.65 25.10L356.20 25.10L356.20 18.20L360.75 18.20L360.75 25.10L367.90 25.10L367.90 28.85L360.75 28.85ZM385.35 52.95Q381.50 52.95 378.38 51.20Q375.25 49.45 373.48 46.23Q371.70 43 371.70 38.75Q371.70 34.55 373.53 31.32Q375.35 28.10 378.50 26.38Q381.65 24.65 385.55 24.65Q389.45 24.65 392.60 26.38Q395.75 28.10 397.57 31.30Q399.40 34.50 399.40 38.75Q399.40 43 397.53 46.23Q395.65 49.45 392.45 51.20Q389.25 52.95 385.35 52.95M385.35 48.95Q387.80 48.95 389.95 47.80Q392.10 46.65 393.43 44.35Q394.75 42.05 394.75 38.75Q394.75 35.45 393.45 33.15Q392.15 30.85 390.05 29.72Q387.95 28.60 385.50 28.60Q383 28.60 380.93 29.72Q378.85 30.85 377.60 33.15Q376.35 35.45 376.35 38.75Q376.35 42.10 377.57 44.40Q378.80 46.70 380.85 47.83Q382.90 48.95 385.35 48.95ZM409.95 29.55Q411.15 27.20 413.38 25.90Q415.60 24.60 418.80 24.60L418.80 29.30L417.60 29.30Q409.95 29.30 409.95 37.60L409.95 52.50L405.40 52.50L405.40 25.10L409.95 25.10L409.95 29.55ZM433.75 52.95Q430.60 52.95 428.10 51.88Q425.60 50.80 424.15 48.88Q422.70 46.95 422.55 44.45L427.25 44.45Q427.45 46.50 429.18 47.80Q430.90 49.10 433.70 49.10Q436.30 49.10 437.80 47.95Q439.30 46.80 439.30 45.05Q439.30 43.25 437.70 42.38Q436.10 41.50 432.75 40.65Q429.70 39.85 427.77 39.02Q425.85 38.20 424.47 36.58Q423.10 34.95 423.10 32.30Q423.10 30.20 424.35 28.45Q425.60 26.70 427.90 25.67Q430.20 24.65 433.15 24.65Q437.70 24.65 440.50 26.95Q443.30 29.25 443.50 33.25L438.95 33.25Q438.80 31.10 437.22 29.80Q435.65 28.50 433 28.50Q430.55 28.50 429.10 29.55Q427.65 30.60 427.65 32.30Q427.65 33.65 428.52 34.52Q429.40 35.40 430.72 35.92Q432.05 36.45 434.40 37.10Q437.35 37.90 439.20 38.67Q441.05 39.45 442.38 41Q443.70 42.55 443.75 45.05Q443.75 47.30 442.50 49.10Q441.25 50.90 438.97 51.92Q436.70 52.95 433.75 52.95Z"/></g></g></svg>